<?xml version="1.0" standalone="no"?>
<!DOCTYPE svg PUBLIC "-//W3C//DTD SVG 20010904//EN"
 "http://www.w3.org/TR/2001/REC-SVG-20010904/DTD/svg10.dtd">
<svg version="1.0" xmlns="http://www.w3.org/2000/svg"
 width="450.000000pt" height="468.000000pt" viewBox="0 0 450.000000 468.000000"
 preserveAspectRatio="xMidYMid meet">

<g transform="translate(0.000000,468.000000) scale(0.100000,-0.100000)"
fill="#000000" stroke="none">
<path d="M2290 4351 c0 -4 15 -13 33 -18 l32 -10 -32 -13 c-29 -10 -33 -17
-34 -48 l-1 -37 -8 30 -8 30 -2 -30 c-2 -25 -3 -26 -7 -7 -3 13 0 29 7 36 8
11 1 17 -35 29 -51 18 -63 6 -12 -13 l32 -12 -32 -14 c-27 -12 -38 -11 -74 1
-49 18 -49 18 -49 6 0 -5 14 -12 30 -16 17 -4 28 -11 25 -15 -11 -18 -70 -21
-112 -6 -25 9 -43 11 -43 5 0 -5 14 -12 30 -15 38 -8 38 -17 -1 -31 -25 -10
-38 -9 -66 2 -38 16 -71 20 -59 8 4 -5 22 -13 39 -19 l32 -11 -36 -12 c-29 -9
-44 -9 -78 4 -54 19 -51 19 -51 -9 0 -22 -9 -28 -81 -51 -54 -18 -77 -30 -68
-35 31 -17 685 -242 704 -242 19 0 673 225 704 242 9 5 4 11 -20 19 -28 10
-42 8 -99 -14 l-66 -25 -239 84 -240 84 -3 36 c-3 31 0 37 22 46 14 5 26 16
26 25 0 18 -9 19 -46 5 -21 -8 -37 -7 -66 5 -45 17 -48 18 -48 6z m90 -68 c0
-29 -12 -24 -17 7 -2 11 2 20 7 20 6 0 10 -12 10 -27z m-193 -65 c1 -26 -1
-29 -7 -13 -6 17 -3 45 5 45 1 0 2 -15 2 -32z m-90 -20 c-3 -8 -6 -5 -6 6 -1
11 2 17 5 13 3 -3 4 -12 1 -19z m-20 -20 c-3 -7 -5 -2 -5 12 0 14 2 19 5 13 2
-7 2 -19 0 -25z m-80 -50 c-3 -8 -6 -5 -6 6 -1 11 2 17 5 13 3 -3 4 -12 1 -19z
m-87 -28 c0 -5 -5 -10 -11 -10 -5 0 -7 5 -4 10 3 6 8 10 11 10 2 0 4 -4 4 -10z"/>
<path d="M1290 3863 c0 -47 4 -82 9 -79 5 3 28 -1 51 -9 68 -24 70 -22 70 45
0 33 1 60 3 60 2 0 24 -7 50 -16 l47 -16 0 -64 c0 -60 2 -65 26 -74 14 -6 27
-10 30 -10 2 0 4 29 4 64 l0 64 50 -16 50 -16 0 -68 c0 -39 4 -68 10 -68 6 0
10 31 10 73 l0 73 -47 16 c-27 9 -119 40 -205 71 l-158 55 0 -85z"/>
<path d="M3223 3878 l-203 -71 0 -78 c0 -44 2 -79 4 -79 2 0 25 9 51 21 26 12
57 22 69 24 11 1 50 14 86 27 78 30 171 58 193 58 15 0 17 12 17 85 0 47 -3
85 -7 84 -5 0 -99 -32 -210 -71z"/>
<path d="M2700 3696 l-205 -73 -3 -82 -3 -82 28 15 c16 8 55 22 88 31 33 10
65 21 70 25 6 4 29 14 52 20 25 8 40 17 36 24 -4 8 -3 8 6 0 8 -7 30 -4 76 10
l65 21 0 83 c0 45 -1 82 -2 81 -2 0 -95 -33 -208 -73z"/>
<path d="M1820 3683 l0 -78 48 -12 c26 -6 55 -14 64 -18 15 -6 17 1 16 57 -1
70 0 70 67 43 35 -15 35 -15 35 -79 0 -49 4 -65 16 -70 38 -15 44 -8 44 54 0
33 1 60 3 60 2 0 24 -7 50 -16 l47 -16 0 -63 c0 -35 5 -67 10 -70 7 -5 10 19
8 70 l-3 77 -185 64 c-102 35 -193 67 -202 70 -16 5 -18 -3 -18 -73z"/>
<path d="M3230 3586 l-205 -73 -3 -83 -3 -83 23 15 c13 8 46 20 73 28 73 19
127 45 154 74 29 31 46 34 31 5 -13 -23 -19 -24 77 6 l63 20 0 83 c0 45 -1 82
-2 81 -2 0 -95 -33 -208 -73z"/>
<path d="M1290 3572 l0 -77 48 -12 c26 -6 55 -14 65 -18 15 -6 17 0 17 59 l0
66 48 -19 47 -19 3 -65 c3 -62 4 -66 32 -76 l30 -10 0 65 c0 35 1 64 3 64 2 0
24 -7 50 -16 l47 -16 0 -63 c0 -35 5 -67 10 -70 7 -5 10 19 8 70 l-3 77 -200
69 c-110 38 -201 69 -202 69 -2 0 -3 -35 -3 -78z"/>
<path d="M1820 3384 c0 -48 4 -83 9 -80 5 3 28 -1 51 -9 67 -24 68 -22 67 45
-1 33 1 60 4 60 3 0 26 -7 52 -16 l47 -16 0 -64 c0 -60 2 -65 26 -74 14 -6 27
-10 30 -10 2 0 4 29 4 65 l0 65 48 -19 47 -19 3 -66 c4 -90 22 -84 22 7 l0 73
-62 21 c-35 11 -127 43 -205 71 l-143 50 0 -84z"/>
<path d="M2693 3398 l-203 -71 0 -78 c0 -76 5 -89 26 -70 11 10 86 36 96 33 4
-1 29 8 55 19 54 23 205 69 228 69 12 0 15 16 15 85 0 47 -3 85 -7 84 -5 0
-99 -32 -210 -71z"/>
<path d="M1290 3273 c0 -47 4 -82 9 -79 5 3 28 -1 51 -9 65 -23 70 -21 70 27
0 32 -7 49 -27 72 l-28 31 26 -23 c16 -14 28 -19 30 -13 3 8 19 6 51 -5 l47
-16 3 -66 c3 -62 4 -66 31 -73 l27 -7 0 64 0 64 48 -19 47 -19 3 -66 c4 -90
22 -84 22 7 l0 73 -82 27 c-46 16 -138 47 -205 71 l-123 44 0 -85z"/>
<path d="M3223 3288 l-203 -72 0 -78 c0 -75 5 -88 26 -69 10 9 79 34 104 36 8
1 44 13 80 27 78 30 170 58 193 58 15 0 17 12 17 85 0 47 -3 85 -7 84 -5 0
-99 -32 -210 -71z m74 -100 c-3 -8 -6 -5 -6 6 -1 11 2 17 5 13 3 -3 4 -12 1
-19z"/>
<path d="M2700 3105 l-205 -72 -3 -77 c-2 -42 0 -76 2 -76 10 0 161 51 191 65
17 7 42 17 57 20 16 4 25 12 21 18 -3 6 -1 7 6 3 6 -4 36 0 66 9 31 9 60 13
65 10 6 -4 10 29 10 84 0 50 -1 91 -2 90 -2 0 -95 -33 -208 -74z"/>
<path d="M1815 3090 c0 -77 1 -80 23 -80 13 0 31 -4 40 -9 9 -4 30 -11 45 -15
l28 -7 -2 63 c-3 70 -2 71 66 43 35 -15 35 -15 35 -79 0 -62 1 -64 30 -75 l30
-10 0 65 c0 35 1 64 3 64 2 0 24 -7 50 -16 l47 -16 0 -63 c0 -35 5 -67 10 -70
7 -5 10 19 8 70 l-3 77 -200 69 c-110 38 -202 69 -205 69 -3 0 -5 -36 -5 -80z"/>
<path d="M3230 2994 l-205 -71 -3 -81 -3 -80 58 24 c32 13 64 24 71 24 7 0 39
11 71 25 32 13 69 26 82 29 13 2 44 11 68 20 24 9 47 13 52 10 15 -9 20 19 17
97 l-3 75 -205 -72z"/>
<path d="M1290 2982 l0 -77 48 -12 c26 -6 55 -14 65 -18 15 -6 17 0 17 59 l0
66 48 -19 47 -19 3 -65 c3 -62 4 -66 32 -76 l30 -10 0 65 c0 35 1 64 3 64 2 0
24 -7 50 -16 l47 -16 0 -63 c0 -35 5 -67 10 -70 7 -5 10 19 8 70 l-3 77 -200
69 c-110 38 -201 69 -202 69 -2 0 -3 -35 -3 -78z"/>
<path d="M1820 2794 c0 -48 4 -83 9 -80 5 3 28 -1 51 -9 63 -22 65 -21 67 41
1 31 4 58 6 60 2 2 25 -3 50 -12 l47 -16 0 -64 c0 -60 2 -65 26 -74 14 -6 27
-10 30 -10 2 0 4 29 4 65 l0 65 48 -19 47 -19 3 -66 c4 -90 22 -84 22 7 l0 73
-77 26 c-43 14 -135 46 -205 71 l-128 46 0 -85z m101 -31 c13 -16 12 -17 -3
-4 -17 13 -22 21 -14 21 2 0 10 -8 17 -17z"/>
<path d="M2800 2844 c-52 -19 -143 -50 -202 -70 l-108 -36 0 -79 c0 -44 1 -79
3 -79 2 0 22 9 45 20 23 11 54 22 69 24 16 2 46 11 68 20 48 21 199 66 220 66
12 0 15 16 15 85 0 47 -3 85 -7 85 -5 -1 -51 -17 -103 -36z m-251 -130 c-15
-16 -25 -21 -28 -13 -2 7 4 18 15 26 30 22 39 15 13 -13z"/>
<path d="M1290 2687 l0 -82 43 -3 c53 -3 87 24 87 68 0 17 1 30 3 30 2 0 24
-7 50 -16 44 -15 47 -18 47 -52 0 -28 3 -33 12 -24 7 7 20 12 30 12 10 0 18 6
18 14 0 25 89 -11 100 -40 12 -32 20 -30 20 4 0 26 -6 30 -77 54 -43 14 -135
46 -205 71 l-128 46 0 -82z"/>
<path d="M3223 2697 l-203 -71 0 -73 c0 -76 13 -91 24 -28 6 32 10 35 41 35
25 0 37 -6 46 -22 6 -13 13 -24 14 -26 2 -2 22 6 46 17 47 22 209 71 234 71
12 0 15 16 15 85 0 47 -3 85 -7 84 -5 0 -99 -32 -210 -72z m74 -94 c-2 -16 -4
-3 -4 27 0 30 2 43 4 28 2 -16 2 -40 0 -55z"/>
<path d="M2890 2583 c-8 -3 -38 -16 -67 -29 -29 -13 -80 -31 -113 -40 -68 -17
-175 -64 -147 -64 9 0 17 -7 17 -16 0 -9 9 -27 20 -41 11 -14 20 -32 20 -39 0
-16 41 -19 56 -5 9 8 79 35 99 37 6 0 27 8 47 18 21 9 49 16 63 16 25 0 25 1
25 85 0 47 -1 85 -2 84 -2 0 -10 -3 -18 -6z m-80 -74 c0 -11 -4 -17 -10 -14
-5 3 -10 13 -10 21 0 8 5 14 10 14 6 0 10 -9 10 -21z m-30 -4 c0 -10 -11 -15
-35 -15 -40 0 -45 7 -12 20 33 13 47 12 47 -5z"/>
<path d="M1545 2560 l-29 -19 24 -10 c30 -11 43 -1 38 28 -3 21 -3 21 -33 1z"/>
<path d="M1815 2503 l0 -78 50 -12 c28 -7 52 -12 55 -13 3 0 4 33 4 72 l-2 73
-43 17 c-24 9 -48 17 -54 17 -6 1 -10 -31 -10 -76z"/>
<path d="M1686 2544 c-9 -25 -7 -64 4 -64 6 0 10 18 10 40 0 43 -4 50 -14 24z"/>
<path d="M2038 2488 c7 -7 12 -29 12 -50 0 -36 2 -38 30 -38 27 0 30 3 30 30
0 27 2 30 25 24 14 -3 25 -2 25 4 0 5 -26 17 -58 26 -70 19 -80 20 -64 4z"/>
<path d="M3320 2436 c-63 -23 -128 -48 -143 -54 -16 -7 -34 -12 -41 -12 -7 0
-16 -3 -20 -7 -4 -5 -26 -13 -49 -18 l-42 -11 -3 -82 -3 -83 28 15 c16 8 55
22 88 31 33 10 65 21 70 25 19 14 216 71 225 65 6 -4 10 29 10 84 0 50 -1 91
-2 90 -2 -1 -55 -20 -118 -43z m-129 -102 l7 -29 1 33 c1 42 13 41 34 -3 22
-46 22 -46 -15 -40 -33 6 -48 19 -48 43 0 6 -5 12 -11 12 -5 0 -7 5 -4 11 11
17 30 4 36 -27z"/>
<path d="M1291 2387 c1 -45 3 -74 6 -64 5 18 6 18 19 -2 10 -13 25 -21 42 -20
15 0 22 3 16 5 -10 4 -10 68 0 116 4 17 -5 23 -56 38 l-28 9 1 -82z m16 -14
c-2 -16 -4 -3 -4 27 0 30 2 43 4 28 2 -16 2 -40 0 -55z"/>
<path d="M2508 2443 c-15 -4 -17 -17 -17 -83 l1 -78 38 17 38 16 -16 27 c-9
16 -19 28 -23 28 -4 0 -10 12 -14 27 -5 20 -2 31 11 40 18 13 14 15 -18 6z"/>
<path d="M2217 2373 c-4 -40 -3 -71 3 -77 7 -7 10 17 10 67 0 42 -2 77 -4 77
-2 0 -6 -30 -9 -67z"/>
<path d="M1434 2405 c10 -8 23 -12 28 -9 14 9 -2 24 -25 24 -21 -1 -21 -1 -3
-15z"/>
<path d="M1520 2317 c0 -74 0 -75 30 -86 l30 -10 0 65 c0 64 0 64 25 58 42
-10 28 12 -16 25 -23 7 -47 15 -55 18 -11 4 -14 -10 -14 -70z"/>
<path d="M2095 2340 c3 -5 8 -10 11 -10 2 0 4 5 4 10 0 6 -5 10 -11 10 -5 0
-7 -4 -4 -10z"/>
<path d="M1678 2263 c5 -97 22 -105 22 -10 0 55 -4 77 -12 77 -10 0 -12 -18
-10 -67z"/>
<path d="M1820 2214 c0 -86 0 -88 20 -90 8 -1 35 -6 60 -12 24 -6 46 -9 49 -6
2 2 -1 4 -7 4 -8 0 -9 7 -2 26 6 14 10 39 10 55 0 16 1 29 3 29 2 0 24 -7 50
-16 l47 -16 0 -64 c0 -60 2 -65 26 -74 14 -6 27 -10 30 -10 2 0 4 29 4 64 l0
64 48 -18 47 -18 3 -66 c4 -90 22 -84 22 7 l0 73 -77 26 c-43 14 -135 46 -205
71 l-128 46 0 -75z"/>
<path d="M2718 2226 c-97 -34 -180 -65 -184 -69 -4 -4 -16 -7 -26 -7 -16 0
-18 -9 -18 -80 0 -44 2 -80 4 -80 2 0 17 7 32 15 16 8 46 18 67 21 20 4 37 11
37 16 0 5 4 7 8 4 5 -3 21 1 35 9 15 8 30 14 33 13 3 0 17 4 32 10 51 18 139
42 155 42 15 0 17 12 17 85 0 47 -3 85 -7 84 -5 0 -88 -28 -185 -63z m-128
-122 c42 -49 29 -57 -18 -11 -21 21 -42 34 -47 30 -4 -5 -5 -2 -1 5 12 21 33
13 66 -24z"/>
<path d="M1290 2093 c0 -47 4 -82 9 -79 5 3 28 -1 51 -9 68 -24 70 -22 70 45
0 33 1 60 3 60 2 0 24 -7 50 -16 l47 -16 0 -64 c0 -60 2 -65 26 -74 14 -6 27
-10 30 -10 2 0 4 29 4 65 l0 65 48 -19 47 -19 3 -66 c4 -90 22 -84 22 7 l0 73
-62 21 c-35 11 -127 43 -205 71 l-143 49 0 -84z"/>
<path d="M3223 2108 l-203 -71 0 -78 c0 -76 5 -90 26 -70 5 5 41 19 79 30 39
11 117 36 174 56 58 19 113 35 123 35 16 0 18 10 18 85 0 47 -3 85 -7 84 -5
-1 -99 -33 -210 -71z"/>
<path d="M2840 1974 c-72 -27 -94 -35 -97 -35 -2 0 -58 -20 -125 -44 l-123
-43 -3 -82 -3 -83 24 16 c14 9 53 23 88 32 35 9 69 20 74 25 18 14 215 71 225
65 6 -4 10 29 10 84 0 50 -1 91 -2 90 -2 0 -32 -11 -68 -25z m-60 -64 c0 -5
-2 -10 -4 -10 -3 0 -8 5 -11 10 -3 6 -1 10 4 10 6 0 11 -4 11 -10z"/>
<path d="M1818 1911 c-3 -79 -2 -81 20 -81 13 0 31 -4 40 -9 9 -4 29 -11 44
-15 l27 -6 0 57 c-1 32 0 61 0 65 1 3 22 -2 49 -12 l47 -18 3 -65 c3 -62 4
-66 32 -76 l30 -10 0 65 c0 35 1 64 3 64 2 0 24 -7 50 -16 l47 -16 0 -63 c0
-35 5 -67 10 -70 6 -4 10 21 10 68 0 62 -3 76 -17 82 -10 3 -97 34 -193 67
-96 33 -180 63 -187 65 -8 3 -12 -20 -15 -76z"/>
<path d="M1290 1801 c0 -75 1 -81 21 -81 11 0 28 -4 37 -9 9 -4 29 -11 45 -15
l27 -6 0 64 0 64 48 -18 c42 -16 47 -21 52 -55 l5 -37 29 31 c18 19 34 27 40
22 6 -5 28 -14 49 -20 l37 -13 0 -63 c0 -35 5 -67 10 -70 6 -4 10 21 10 69 l0
74 -42 16 c-24 8 -110 39 -193 67 -82 28 -156 54 -162 56 -10 4 -13 -15 -13
-76z"/>
<path d="M3215 1810 l-190 -67 -3 -82 c-3 -80 -2 -82 18 -71 16 8 18 15 10 29
-14 26 -1 34 19 11 15 -19 19 -19 66 -5 28 9 64 22 80 29 17 8 44 18 60 21 17
4 56 16 87 27 32 10 62 16 68 13 6 -4 10 25 10 79 0 76 -2 86 -17 85 -10 -1
-103 -32 -208 -69z m82 -67 c-2 -16 -4 -5 -4 22 0 28 2 40 4 28 2 -13 2 -35 0
-50z"/>
<path d="M1547 1722 c-36 -38 -35 -67 3 -81 l30 -10 0 60 c0 32 -1 59 -3 59
-2 0 -15 -13 -30 -28z"/>
<path d="M1820 1613 c0 -47 4 -82 9 -79 5 3 28 -1 51 -9 70 -25 73 -23 68 45
-2 33 -1 60 2 60 4 0 27 -7 53 -16 l47 -16 0 -64 c0 -52 3 -65 19 -74 36 -19
41 -12 41 55 l0 65 48 -19 47 -19 3 -66 c4 -90 22 -84 22 7 l0 73 -82 27 c-46
16 -138 47 -205 71 l-123 44 0 -85z"/>
<path d="M2820 1671 c-41 -15 -132 -47 -202 -71 l-128 -44 0 -78 c0 -75 5 -88
26 -69 11 10 86 36 97 33 4 -1 26 7 50 18 45 21 208 70 232 70 12 0 15 16 15
85 0 47 -3 85 -7 85 -5 -1 -42 -13 -83 -29z"/>
<path d="M1290 1505 c0 -48 4 -84 9 -81 5 3 28 -1 51 -9 68 -24 70 -22 70 45
0 33 1 60 3 60 2 0 24 -7 50 -16 l47 -16 0 -64 c0 -60 2 -65 26 -74 14 -6 27
-10 30 -10 2 0 4 29 4 64 l0 64 48 -18 47 -18 3 -66 c4 -89 22 -84 22 7 l0 72
-170 58 c-93 32 -185 64 -205 73 l-35 14 0 -85z"/>
<path d="M3223 1517 l-203 -70 0 -79 c0 -75 5 -89 26 -68 5 5 38 17 74 26 35
9 80 25 99 35 20 11 42 19 50 19 7 0 -5 20 -29 46 -23 25 -39 48 -36 52 5 5
77 -56 97 -82 4 -5 28 -1 55 8 26 9 56 16 66 16 16 0 18 9 18 85 0 47 -3 85
-7 84 -5 -1 -99 -33 -210 -72z m74 -74 c-3 -10 -5 -4 -5 12 0 17 2 24 5 18 2
-7 2 -21 0 -30z"/>
<path d="M2700 1335 l-205 -73 -3 -81 -3 -82 28 15 c16 8 55 22 87 31 32 9 82
28 112 41 30 13 58 23 62 22 4 -1 31 6 59 16 29 9 57 15 63 11 6 -4 10 25 10
84 0 50 -1 90 -2 90 -2 -1 -95 -34 -208 -74z"/>
<path d="M1815 1323 l0 -78 65 -17 c36 -10 66 -18 68 -18 2 0 3 26 2 58 -1 31
-1 60 -1 64 1 3 22 -2 49 -12 l47 -18 3 -65 c3 -62 4 -66 32 -76 l30 -10 0 65
c0 35 1 64 3 64 2 0 24 -7 50 -16 l47 -16 0 -63 c0 -35 5 -67 10 -70 6 -4 10
21 10 69 l0 74 -42 16 c-77 28 -362 126 -367 126 -3 0 -6 -35 -6 -77z"/>
<path d="M1290 1213 l0 -79 53 -14 c28 -7 58 -15 65 -17 9 -4 12 12 12 60 l0
65 48 -18 47 -18 3 -65 c3 -62 4 -66 32 -76 l30 -10 0 65 c0 35 1 64 3 64 2 0
24 -7 50 -16 l47 -16 0 -69 c0 -39 4 -69 10 -69 6 0 10 31 10 74 0 61 -3 75
-17 81 -10 3 -97 34 -193 67 -96 33 -181 63 -187 65 -10 4 -13 -15 -13 -74z"/>
<path d="M3220 1221 l-195 -68 -3 -81 -3 -80 58 23 c32 13 75 27 96 30 20 4
37 11 37 15 0 4 21 13 48 20 26 7 71 21 99 31 29 10 59 16 68 13 13 -5 15 7
15 80 0 62 -3 86 -12 85 -7 0 -101 -31 -208 -68z m77 -53 c-3 -8 -6 -5 -6 6
-1 11 2 17 5 13 3 -3 4 -12 1 -19z"/>
<path d="M1820 1023 c0 -47 4 -82 9 -79 5 3 28 -1 51 -9 69 -24 72 -22 69 40
-1 30 0 57 2 60 3 3 27 -2 52 -11 l47 -16 0 -64 c0 -52 3 -65 19 -74 36 -19
41 -12 41 54 l0 64 48 -18 47 -18 3 -66 c4 -89 22 -84 22 7 l0 72 -205 71
-205 71 0 -84z"/>
<path d="M2693 1037 l-203 -71 0 -78 c0 -72 6 -89 24 -71 9 9 78 33 96 33 9 0
34 9 55 20 22 11 49 22 60 24 11 3 49 14 85 25 36 11 73 21 83 21 15 0 17 11
17 85 0 47 -3 85 -7 84 -5 0 -99 -33 -210 -72z"/>
<path d="M1290 875 c0 -74 3 -135 7 -135 12 0 367 122 375 129 4 3 -81 36
-188 73 l-194 67 0 -134z"/>
<path d="M3170 917 l-145 -52 -3 -89 c-2 -49 -1 -95 2 -102 3 -9 47 2 155 39
l151 52 0 103 c0 56 -3 102 -7 102 -5 -1 -73 -24 -153 -53z"/>
<path d="M1032 808 c-69 -25 -108 -44 -100 -49 17 -9 1423 -499 1433 -499 10
0 1416 490 1433 499 8 5 -32 24 -105 49 -65 23 -121 42 -125 42 -5 0 -8 -17
-8 -39 0 -44 19 -34 -245 -121 -71 -24 -194 -67 -273 -96 -78 -30 -146 -53
-150 -52 -4 0 -14 -2 -22 -5 -14 -6 -313 -113 -444 -159 -49 -17 -66 -19 -95
-11 -47 14 -1005 346 -1093 379 -68 26 -68 26 -68 65 0 25 -4 39 -12 38 -7 0
-64 -19 -126 -41z"/>
<path d="M2640 734 l-145 -51 -3 -102 c-1 -55 1 -101 5 -101 13 0 277 93 286
100 4 4 6 51 5 106 l-3 99 -145 -51z"/>
<path d="M3263 90 c0 -30 1 -47 4 -37 5 18 5 18 25 0 21 -18 21 -18 9 5 -10
19 -10 27 1 40 10 13 8 13 -9 -1 -21 -19 -22 -19 -26 15 -2 20 -4 11 -4 -22z"/>
<path d="M3770 126 c0 -2 9 -6 20 -9 11 -3 18 -1 14 4 -5 9 -34 13 -34 5z"/>
<path d="M3858 123 c6 -2 12 -20 12 -38 0 -18 -6 -36 -12 -38 -7 -3 -4 -6 7
-6 18 -1 20 4 17 44 -3 34 -8 45 -21 44 -10 0 -11 -2 -3 -6z"/>
<path d="M3930 121 c0 -5 9 -7 20 -4 11 3 20 7 20 9 0 2 -9 4 -20 4 -11 0 -20
-4 -20 -9z"/>
<path d="M4010 121 c0 -5 9 -7 20 -4 11 3 20 7 20 9 0 2 -9 4 -20 4 -11 0 -20
-4 -20 -9z"/>
<path d="M4087 123 c-14 -14 -6 -45 13 -50 25 -7 26 -23 3 -24 -13 0 -14 -2
-4 -6 16 -6 41 22 41 46 0 12 -3 12 -12 3 -19 -19 -38 -14 -38 9 0 16 5 20 20
16 11 -3 18 -1 14 4 -6 11 -28 12 -37 2z"/>
<path d="M4170 121 c0 -5 9 -7 20 -4 11 3 20 7 20 9 0 2 -9 4 -20 4 -11 0 -20
-4 -20 -9z"/>
<path d="M4252 118 c-17 -17 -15 -53 4 -69 14 -11 18 -10 30 6 8 10 14 26 13
34 0 9 -5 3 -11 -12 -13 -35 -33 -30 -33 9 0 21 5 29 17 28 10 -1 15 2 12 7
-7 12 -18 11 -32 -3z"/>
<path d="M4338 123 c6 -2 12 -20 12 -38 0 -18 -6 -36 -12 -38 -7 -3 -4 -6 7
-6 18 -1 20 4 17 44 -3 34 -8 45 -21 44 -10 0 -11 -2 -3 -6z"/>
<path d="M2922 83 c2 -20 9 -38 16 -39 7 -1 8 0 2 3 -14 7 -13 50 2 55 7 3 5
7 -6 11 -15 6 -17 2 -14 -30z"/>
<path d="M3092 83 c2 -20 9 -38 16 -39 7 -1 8 0 2 3 -14 7 -13 50 2 55 7 3 5
7 -6 11 -15 6 -17 2 -14 -30z"/>
<path d="M2741 60 c1 -25 3 -37 6 -28 2 9 10 15 17 12 19 -7 39 22 31 45 -4
14 -14 20 -31 19 -22 -2 -24 -7 -23 -48z m46 24 c8 -21 -13 -42 -28 -27 -13
13 -5 43 11 43 6 0 13 -7 17 -16z"/>
<path d="M2823 75 c0 -22 2 -30 4 -17 2 12 2 30 0 40 -3 9 -5 -1 -4 -23z"/>
<path d="M2858 95 c7 -14 7 -27 1 -40 -10 -19 -10 -19 4 -2 15 18 16 18 26 0
6 -10 11 -13 11 -7 0 5 -5 15 -11 21 -8 8 -8 13 0 17 6 4 11 13 11 19 0 8 -4
7 -9 -2 -8 -13 -12 -13 -27 0 -16 13 -16 12 -6 -6z"/>
<path d="M2980 100 c13 -9 13 -12 -2 -21 -26 -15 -23 -39 5 -37 19 2 22 7 19
35 -3 22 -9 33 -21 33 -14 0 -14 -2 -1 -10z m10 -40 c0 -5 -4 -10 -10 -10 -5
0 -10 5 -10 10 0 6 5 10 10 10 6 0 10 -4 10 -10z"/>
<path d="M3034 98 c-4 -6 0 -16 9 -23 22 -16 21 -22 0 -28 -16 -4 -16 -5 -1
-6 24 -2 34 20 15 34 -22 16 -21 22 1 28 15 4 15 5 0 6 -9 0 -20 -4 -24 -11z"/>
<path d="M3137 103 c-4 -3 -7 -17 -7 -30 0 -26 26 -41 42 -25 8 8 5 9 -11 5
-18 -4 -21 -1 -21 22 0 22 4 26 20 22 11 -3 18 -1 14 4 -6 11 -28 12 -37 2z"/>
<path d="M3204 96 c-10 -25 0 -51 21 -54 18 -2 19 -2 3 8 -10 6 -18 19 -18 30
0 10 8 21 18 23 16 4 16 5 -1 6 -10 0 -20 -5 -23 -13z"/>
<path d="M3374 96 c-10 -25 0 -51 21 -54 18 -2 19 -2 3 8 -10 6 -18 19 -18 30
0 10 8 21 18 23 16 4 16 5 -1 6 -10 0 -20 -5 -23 -13z"/>
<path d="M3437 103 c-4 -3 -7 -17 -7 -30 0 -26 26 -41 42 -25 8 8 5 9 -11 5
-18 -4 -21 -1 -21 22 0 22 4 26 20 22 11 -3 18 -1 14 4 -6 11 -28 12 -37 2z"/>
<path d="M3501 71 c1 -35 2 -35 8 -7 9 43 31 45 32 4 l1 -33 7 29 c9 42 29 44
34 4 l5 -33 -2 35 c-1 34 -2 35 -43 36 l-43 1 1 -36z"/>
<path d="M3783 94 c24 -7 22 -42 -3 -47 -17 -4 -16 -4 2 -3 31 1 33 50 3 53
-16 1 -16 1 -2 -3z"/>
<path d="M3943 89 c9 -5 17 -16 17 -24 0 -7 -8 -16 -17 -19 -14 -4 -14 -4 2
-3 37 4 27 57 -10 57 -5 -1 -2 -5 8 -11z"/>
<path d="M4023 89 c9 -5 17 -16 17 -24 0 -7 -8 -16 -17 -19 -14 -4 -14 -4 2
-3 37 4 27 57 -10 57 -5 -1 -2 -5 8 -11z"/>
<path d="M4183 89 c9 -5 17 -16 17 -24 0 -7 -8 -16 -17 -19 -14 -4 -14 -4 2
-3 37 4 27 57 -10 57 -5 -1 -2 -5 8 -11z"/>
<path d="M3663 73 c9 -2 23 -2 30 0 6 3 -1 5 -18 5 -16 0 -22 -2 -12 -5z"/>
</g>
</svg>
